# xmcd
#
# Track frame offsets: 
#        150
#        22479
#        39749
#        59363
#        73231
#        87347
#        109542
#        130117
#        147368
#        162499
#        180481
#
# Disc length: 2692 seconds
#
# Revision: 0
# Processed by: cddbd v1.5.2PL0 Copyright (c) Steve Scherf et al.
# Submitted via: ExactAudioCopy v0.99pb5
#
DISCID=a20a820b
DTITLE=Phil Kitze and the Resonators - Backlash!!
DYEAR=2010
DGENRE=Blues
TTITLE0=This Old World
TTITLE1=Ain't That Fine
TTITLE2=(You Left Me) Tremblin'
TTITLE3=Backlash
TTITLE4=Party At Hand
TTITLE5=You Shouldn't Of Left Me
TTITLE6=Come My Way
TTITLE7=For 3 Trillion
TTITLE8=Your The One
TTITLE9=Next Time Around
TTITLE10=Got Your Way
EXTD=
EXTT0=
EXTT1=
EXTT2=
EXTT3=
EXTT4=
EXTT5=
EXTT6=
EXTT7=
EXTT8=
EXTT9=
EXTT10=
PLAYORDER=
